<?xml version="1.0" encoding="UTF-8"?>
<svg id="a" data-name="Calque 1" xmlns="http://www.w3.org/2000/svg" width="31.5" height="31.5" viewBox="0 0 31.5 31.5">
  <path id="b" data-name="Icon awesome-linkedin" d="M29.25,0H2.24C1,0,0,1.03,0,2.27V29.23c0,1.25,1,2.26,2.24,2.27H29.25c1.25,0,2.25-1.02,2.25-2.27V2.27c0-1.25-1-2.26-2.25-2.27ZM9.52,27H4.85V11.97h4.68v15.03h0ZM7.19,9.91c-1.5,0-2.71-1.21-2.71-2.71s1.21-2.71,2.71-2.71,2.71,1.21,2.71,2.71h0c0,1.49-1.21,2.71-2.71,2.71ZM27.02,27h-4.67v-7.31c0-1.74-.03-3.99-2.43-3.99s-2.81,1.9-2.81,3.86v7.44h-4.67V11.97h4.48v2.05h.06c.92-1.56,2.61-2.49,4.42-2.43,4.73,0,5.6,3.11,5.6,7.16v8.24Z" style="fill: #fff;"/>
</svg>