<svg xmlns="http://www.w3.org/2000/svg" version="1.1" xmlns:xlink="http://www.w3.org/1999/xlink" xmlns:svgjs="http://svgjs.com/svgjs" width="512" height="512" x="0" y="0" viewBox="0 0 64 64" style="enable-background:new 0 0 512 512" xml:space="preserve" class=""><g><g><path d="m58.8 43.2c-.1-1.7-.9-3.2-2.2-4.2l-7.9-6.2c-1.8-1.4-4.4-1.2-6 .4l-3 3c-.1.1-.2.1-.3.1-2.2-1.2-4.3-2.7-6-4.5-1.8-1.8-3.3-3.8-4.5-6 0-.1 0-.2.1-.3l2.9-2.9c1.6-1.6 1.8-4.1.4-5.9l-6.1-8c-1-1.3-2.5-2.2-4.2-2.3s-3.3.5-4.5 1.7l-6.8 6.8c-3.4 3.4-4.2 8.6-2 12.9 3.2 6.1 7.3 11.6 12.2 16.5s10.4 9 16.5 12.2c1.6.9 3.4 1.3 5.1 1.3 2.8 0 5.6-1.1 7.8-3.2l6.8-6.8c1.2-1.3 1.8-2.9 1.7-4.6zm-4.5 1.7-6.8 6.8c-2.2 2.2-5.5 2.7-8.2 1.3-5.7-3-11-6.9-15.5-11.5-4.6-4.6-8.4-9.8-11.5-15.5-1.4-2.7-.9-6 1.3-8.2l6.8-6.8c.3-.3.8-.5 1.3-.5h.1c.5 0 1 .3 1.3.7l6.1 8c.2.2.1.5 0 .7l-2.9 2.9c-1.3 1.3-1.6 3.3-.8 5 1.4 2.6 3.1 4.9 5.2 7s4.4 3.8 7 5.2c1.6.9 3.6.6 5-.8l3-3c.2-.2.5-.2.7 0l7.9 6.2c.4.3.7.8.7 1.3-.1.3-.3.8-.7 1.2z" fill="#212f4f" data-original="#000000"></path></g></g></svg>