<?xml version="1.0" encoding="UTF-8"?>
<svg id="a" data-name="Calque 1" xmlns="http://www.w3.org/2000/svg" width="38.39" height="27" viewBox="0 0 38.39 27">
  <path id="b" data-name="Icon awesome-youtube" d="M37.6,4.22c-.44-1.66-1.74-2.96-3.4-3.42-2.99-.81-15-.81-15-.81,0,0-12.01,0-15,.81-1.66,.45-2.96,1.75-3.4,3.42-.8,3.01-.8,9.3-.8,9.3,0,0,0,6.29,.8,9.3,.45,1.65,1.74,2.93,3.39,3.36,2.99,.81,15,.81,15,.81,0,0,12.01,0,15-.81,1.65-.43,2.95-1.71,3.4-3.36,.8-3.01,.8-9.3,.8-9.3,0,0,0-6.29-.8-9.3h0ZM15.27,19.24V7.82l10.04,5.71-10.04,5.71Z" style="fill: #fff;"/>
</svg>