<svg xmlns="http://www.w3.org/2000/svg" version="1.1" xmlns:xlink="http://www.w3.org/1999/xlink" xmlns:svgjs="http://svgjs.com/svgjs" width="512" height="512" x="0" y="0" viewBox="0 0 24 24" style="enable-background:new 0 0 512 512" xml:space="preserve" class=""><g><g><path d="m3.5 7.5h17c.8286133 0 1.5-.6713867 1.5-1.5s-.6713867-1.5-1.5-1.5h-17c-.8286133 0-1.5.6713867-1.5 1.5s.6713867 1.5 1.5 1.5z" fill="#ffffff" data-original="#000000" class=""></path><path d="m20.5 10.5h-17c-.8286133 0-1.5.6713867-1.5 1.5s.6713867 1.5 1.5 1.5h17c.8286133 0 1.5-.6713867 1.5-1.5s-.6713867-1.5-1.5-1.5z" fill="#ffffff" data-original="#000000" class=""></path><path d="m20.5 16.5h-17c-.8286133 0-1.5.6713867-1.5 1.5s.6713867 1.5 1.5 1.5h17c.8286133 0 1.5-.6713867 1.5-1.5s-.6713867-1.5-1.5-1.5z" fill="#ffffff" data-original="#000000" class=""></path></g></g></svg>